<svg xmlns="http://www.w3.org/2000/svg" width="45" height="44" viewBox="0 0 45 44" fill="none"><path d="M22.5 2.42989e-08C19.5454 -0.000135742 16.6197 0.568748 13.8899 1.67417C11.1602 2.77959 8.67985 4.3999 6.59053 6.44259C4.50121 8.48528 2.84383 10.9103 1.71303 13.5793C0.582225 16.2483 0.000136878 19.1089 2.53525e-07 21.9978C-0.000443333 24.8871 0.581217 27.7482 1.71176 30.4177C2.84231 33.0872 4.49959 35.5127 6.58897 37.5559C8.67834 39.599 11.1589 41.2197 13.8889 42.3254C16.619 43.4311 19.545 44.0001 22.5 44C25.455 44.0001 28.381 43.4311 31.1111 42.3254C33.8411 41.2197 36.3217 39.599 38.411 37.5559C40.5004 35.5127 42.1577 33.0872 43.2882 30.4177C44.4188 27.7482 45.0004 24.8871 45 21.9978C44.9999 19.1089 44.4178 16.2483 43.287 13.5793C42.1562 10.9103 40.4988 8.48528 38.4095 6.44259C36.3202 4.3999 33.8398 2.77959 31.1101 1.67417C28.3803 0.568748 25.4546 -0.000135753 22.5 2.42989e-08ZM20.9457 9.96014H35.1018L20.8885 19.7605H30.6062L9.89824 34.0355L14.3938 24.2395L16.4501 19.7605L20.9457 9.96014Z" fill="black"></path></svg>