<svg xmlns="http://www.w3.org/2000/svg" width="27" height="40" viewBox="0 0 27 40" fill="none"><path d="M0 33.3334C0 29.6515 2.9848 26.6667 6.66667 26.6667H13.3333V33.3334C13.3333 37.0153 10.3485 40.0001 6.66667 40.0001C2.9848 40.0001 0 37.0153 0 33.3334Z" fill="#B5B5B5"></path><path d="M13.3335 0V13.3333H20.0002C23.682 13.3333 26.6668 10.3485 26.6668 6.66667C26.6668 2.9848 23.682 0 20.0002 0H13.3335Z" fill="#9D9D9D"></path><path d="M19.9445 26.6666C23.6264 26.6666 26.6112 23.6818 26.6112 19.9999C26.6112 16.318 23.6264 13.3333 19.9445 13.3333C16.2626 13.3333 13.2778 16.318 13.2778 19.9999C13.2778 23.6818 16.2626 26.6666 19.9445 26.6666Z" fill="#AFAFAF"></path><path d="M0 6.66667C0 10.3485 2.9848 13.3333 6.66667 13.3333H13.3333V0H6.66667C2.9848 0 0 2.9848 0 6.66667Z" fill="#868686"></path><path d="M0 19.9999C0 23.6818 2.9848 26.6666 6.66667 26.6666H13.3333V13.3333H6.66667C2.9848 13.3333 0 16.3181 0 19.9999Z" fill="#808080"></path></svg>