<svg xmlns="http://www.w3.org/2000/svg" width="156" height="49" viewBox="0 0 156 49" fill="none"><path d="M2.09035 47.5962C1.18449 47.5962 0.635231 46.5964 1.12103 45.8319L28.1243 3.33298C28.7407 2.36288 30.2421 2.79951 30.2421 3.94887L30.2421 46.4478C30.2421 47.082 29.7279 47.5962 29.0937 47.5962L2.09035 47.5962Z" fill="#313131"></path><path d="M53.425 47.6055C54.3293 47.6055 54.8788 46.6089 54.3963 45.8442L35.8071 16.3841C35.1927 15.4105 33.6874 15.8457 33.6874 16.9969L33.6874 46.457C33.6874 47.0913 34.2015 47.6055 34.8358 47.6055L53.425 47.6055Z" fill="#313131"></path><path d="M67.2704 32.1654H64.1847L68.1926 20.2867H72.0149L76.0228 32.1654H72.9372L70.1473 23.2796H70.0545L67.2704 32.1654ZM66.8586 27.4905H73.3084V29.6714H66.8586V27.4905Z" fill="#313131"></path><path d="M77.7918 32.1654V20.2867H86.0744V22.6183H80.6629V25.0544H85.651V27.3919H80.6629V29.8338H86.0744V32.1654H77.7918Z" fill="#313131"></path><path d="M96.1579 24.167C96.0922 23.9234 95.9955 23.7088 95.8679 23.5232C95.7403 23.3337 95.5837 23.1732 95.3981 23.0418C95.2125 22.9103 94.9998 22.8117 94.7601 22.7459C94.5203 22.6763 94.2574 22.6415 93.9712 22.6415C93.3951 22.6415 92.8963 22.7807 92.4748 23.0592C92.0572 23.3376 91.7343 23.7436 91.5062 24.2772C91.278 24.8069 91.164 25.4508 91.164 26.2086C91.164 26.9704 91.2742 27.62 91.4946 28.1575C91.715 28.695 92.034 29.1049 92.4516 29.3871C92.8692 29.6694 93.3758 29.8106 93.9712 29.8106C94.4971 29.8106 94.9418 29.7255 95.3053 29.5553C95.6726 29.3813 95.951 29.1358 96.1405 28.8187C96.33 28.5017 96.4247 28.1285 96.4247 27.6993L96.9583 27.7631H94.0699V25.6692H99.1914V27.2411C99.1914 28.3044 98.9652 29.2151 98.5128 29.973C98.0642 30.7309 97.4455 31.3128 96.6567 31.7188C95.8718 32.1248 94.9689 32.3278 93.948 32.3278C92.8151 32.3278 91.8194 32.0823 90.961 31.5912C90.1025 31.1001 89.4336 30.4002 88.9541 29.4915C88.4746 28.579 88.2349 27.4963 88.2349 26.2435C88.2349 25.269 88.3799 24.4048 88.6699 23.6508C88.9599 22.8929 89.364 22.251 89.8821 21.7251C90.4041 21.1992 91.0074 20.801 91.6918 20.5303C92.3801 20.2596 93.1206 20.1243 93.9132 20.1243C94.6015 20.1243 95.2415 20.2229 95.8331 20.4201C96.4286 20.6173 96.9545 20.8957 97.4107 21.2553C97.8709 21.6149 98.244 22.0422 98.5302 22.5371C98.8163 23.0321 98.9942 23.5754 99.0638 24.167H96.1579Z" fill="#313131"></path><path d="M101.374 32.1654V20.2867H109.656V22.6183H104.245V25.0544H109.233V27.3919H104.245V29.8338H109.656V32.1654H101.374Z" fill="#313131"></path><path d="M114.514 32.1654H111.428L115.436 20.2867H119.258L123.266 32.1654H120.181L117.391 23.2796H117.298L114.514 32.1654ZM114.102 27.4905H120.552V29.6714H114.102V27.4905Z" fill="#313131"></path><path d="M135.145 20.2867V32.1654H132.709L127.982 25.3096H127.906V32.1654H125.035V20.2867H127.506L132.181 27.1309H132.28V20.2867H135.145Z" fill="#313131"></path><path d="M64.153 36.6663H66.6629L70.0241 44.8702H70.1567L73.5179 36.6663H76.0278V47.9882H74.0597V40.2099H73.9547L70.8257 47.955H69.3551L66.2261 40.1933H66.1211V47.9882H64.153V36.6663Z" fill="#313131"></path><path d="M88.378 42.3272C88.378 43.5471 88.1495 44.592 87.6925 45.4618C87.2392 46.3279 86.62 46.9913 85.835 47.452C85.0536 47.9127 84.1673 48.143 83.1759 48.143C82.1845 48.143 81.2962 47.9127 80.5112 47.452C79.7299 46.9876 79.1107 46.3223 78.6537 45.4562C78.2004 44.5865 77.9737 43.5435 77.9737 42.3272C77.9737 41.1073 78.2004 40.0643 78.6537 39.1982C79.1107 38.3284 79.7299 37.6632 80.5112 37.2025C81.2962 36.7418 82.1845 36.5115 83.1759 36.5115C84.1673 36.5115 85.0536 36.7418 85.835 37.2025C86.62 37.6632 87.2392 38.3284 87.6925 39.1982C88.1495 40.0643 88.378 41.1073 88.378 42.3272ZM86.3159 42.3272C86.3159 41.4685 86.1814 40.7443 85.9124 40.1546C85.647 39.5612 85.2785 39.1135 84.8067 38.8112C84.335 38.5053 83.7913 38.3524 83.1759 38.3524C82.5604 38.3524 82.0168 38.5053 81.545 38.8112C81.0733 39.1135 80.7029 39.5612 80.4338 40.1546C80.1685 40.7443 80.0358 41.4685 80.0358 42.3272C80.0358 43.186 80.1685 43.912 80.4338 44.5054C80.7029 45.0951 81.0733 45.5429 81.545 45.8488C82.0168 46.151 82.5604 46.3021 83.1759 46.3021C83.7913 46.3021 84.335 46.151 84.8067 45.8488C85.2785 45.5429 85.647 45.0951 85.9124 44.5054C86.1814 43.912 86.3159 43.186 86.3159 42.3272Z" fill="#313131"></path><path d="M89.3178 38.3856V36.6663H98.351V38.3856H94.8516V47.9882H92.8172V38.3856H89.3178Z" fill="#313131"></path><path d="M109.708 42.3272C109.708 43.5471 109.479 44.592 109.022 45.4618C108.569 46.3279 107.95 46.9913 107.164 47.452C106.383 47.9127 105.497 48.143 104.505 48.143C103.514 48.143 102.626 47.9127 101.841 47.452C101.059 46.9876 100.44 46.3223 99.9832 45.4562C99.5299 44.5865 99.3033 43.5435 99.3033 42.3272C99.3033 41.1073 99.5299 40.0643 99.9832 39.1982C100.44 38.3284 101.059 37.6632 101.841 37.2025C102.626 36.7418 103.514 36.5115 104.505 36.5115C105.497 36.5115 106.383 36.7418 107.164 37.2025C107.95 37.6632 108.569 38.3284 109.022 39.1982C109.479 40.0643 109.708 41.1073 109.708 42.3272ZM107.645 42.3272C107.645 41.4685 107.511 40.7443 107.242 40.1546C106.977 39.5612 106.608 39.1135 106.136 38.8112C105.664 38.5053 105.121 38.3524 104.505 38.3524C103.89 38.3524 103.346 38.5053 102.875 38.8112C102.403 39.1135 102.032 39.5612 101.763 40.1546C101.498 40.7443 101.365 41.4685 101.365 42.3272C101.365 43.186 101.498 43.912 101.763 44.5054C102.032 45.0951 102.403 45.5429 102.875 45.8488C103.346 46.151 103.89 46.3021 104.505 46.3021C105.121 46.3021 105.664 46.151 106.136 45.8488C106.608 45.5429 106.977 45.0951 107.242 44.5054C107.511 43.912 107.645 43.186 107.645 42.3272Z" fill="#313131"></path><path d="M111.647 47.9882V36.6663H115.892C116.762 36.6663 117.492 36.8174 118.081 37.1196C118.675 37.4218 119.123 37.8456 119.425 38.3911C119.731 38.9329 119.884 39.5649 119.884 40.2873C119.884 41.0133 119.729 41.6436 119.419 42.178C119.113 42.7087 118.662 43.1196 118.065 43.4108C117.468 43.6983 116.734 43.842 115.865 43.842H112.841V42.1393H115.588C116.097 42.1393 116.513 42.0692 116.838 41.9292C117.162 41.7855 117.402 41.5772 117.556 41.3045C117.715 41.0281 117.794 40.689 117.794 40.2873C117.794 39.8856 117.715 39.5428 117.556 39.259C117.398 38.9716 117.156 38.7541 116.832 38.6067C116.508 38.4556 116.089 38.38 115.577 38.38H113.698V47.9882H111.647ZM117.495 42.858L120.298 47.9882H118.01L115.257 42.858H117.495Z" fill="#313131"></path><path d="M124.154 47.9882L120.959 36.6663H123.165L125.205 44.9863H125.31L127.488 36.6663H129.495L131.678 44.9919H131.778L133.818 36.6663H136.024L132.828 47.9882H130.805L128.538 40.0441H128.45L126.178 47.9882H124.154Z" fill="#313131"></path><path d="M137.835 47.9882H135.646L139.632 36.6663H142.164L146.156 47.9882H143.966L140.942 38.9881H140.854L137.835 47.9882ZM137.907 43.549H143.878V45.1964H137.907V43.549Z" fill="#313131"></path><path d="M145.717 36.6663H148.034L150.803 41.6749H150.914L153.684 36.6663H156L151.881 43.7646V47.9882H149.836V43.7646L145.717 36.6663Z" fill="#313131"></path></svg>