<svg width="1440" height="140" viewBox="0 0 1440 140" fill="none" xmlns="http://www.w3.org/2000/svg">
<path d="M590.134 140C536.275 140.001 484.404 122.282 434.218 105.141C394.127 91.4469 352.672 77.2876 310.508 72.2746C261.966 66.5025 212.745 76.9504 165.147 87.056L157.74 88.6274C106.616 99.4829 53.7536 110.706 0.238281 108.792L0.313199 106.686C53.5668 108.59 106.307 97.3952 157.31 86.5658L164.716 84.9934C212.48 74.8536 261.87 64.3685 310.752 70.1808C353.135 75.221 394.696 89.4166 434.889 103.145C485.518 120.438 537.881 138.31 592.077 137.885C626.032 137.612 660.328 128.98 693.494 120.632C739.871 108.96 787.827 96.8898 835.826 107.358C845.482 109.464 854.69 113.154 863.594 116.724C873.601 120.734 883.949 124.881 894.842 126.71C914.926 130.082 937.139 127.426 960.863 118.812C983.9 110.448 1005.58 98.136 1026.54 86.2275C1044.79 75.8612 1063.66 65.1415 1083.42 57.023C1113.68 44.585 1139.04 41.2984 1163.23 46.6778C1193.45 53.3981 1221.19 68.9235 1248.02 83.9364C1249.65 84.8495 1251.28 85.7605 1252.9 86.6674C1256.05 88.421 1259.19 90.1917 1262.35 91.9684C1289.29 107.139 1317.16 122.827 1347.29 130.337C1381.69 138.913 1412.41 131.049 1438.59 106.961L1440 108.517C1413.27 133.11 1381.91 141.14 1346.78 132.383C1316.39 124.805 1288.4 109.047 1261.33 93.8085C1258.17 92.0328 1255.03 90.2631 1251.89 88.5106C1250.27 87.6036 1248.64 86.6926 1247.01 85.7796C1220.31 70.8391 1192.71 55.3893 1162.78 48.7354C1139.03 43.4536 1114.06 46.706 1084.2 58.9739C1064.57 67.0431 1045.76 77.7295 1027.57 88.0636C1006.53 100.014 984.774 112.372 961.572 120.795C937.506 129.532 914.939 132.221 894.499 128.789C883.384 126.923 872.931 122.733 862.822 118.681C853.996 115.144 844.871 111.486 835.385 109.417C787.862 99.0541 740.145 111.063 694 122.678C660.716 131.055 626.298 139.717 592.094 139.992C591.441 139.997 590.786 140 590.134 140Z" fill="#4467F6"/>
<g opacity="0.800003">
<mask id="mask0_389_2" style="mask-type:luminance" maskUnits="userSpaceOnUse" x="0" y="32" width="1440" height="93">
<path d="M0.193359 124.073H1439.95V32.7241H0.193359V124.073Z" fill="white"/>
</mask>
<g mask="url(#mask0_389_2)">
<path d="M599.32 124.073C554.338 124.074 509.462 110.737 466.051 97.8378L460.815 96.2826C453.669 94.1626 446.398 91.9651 439.366 89.8401C396.722 76.9521 352.626 63.6263 307.729 58.8619C261.451 53.9515 214.695 63.9082 169.478 73.5366L163.617 74.7839C113.492 85.427 56.6799 97.4905 0.193359 92.9848L0.35819 90.883C56.5421 95.3645 110.757 83.8536 163.186 72.7213L169.046 71.475C214.422 61.8123 261.342 51.8205 307.948 56.7671C353.04 61.5506 397.23 74.9057 439.966 87.8218C446.995 89.9458 454.264 92.1423 461.405 94.2612L466.643 95.8165C510.147 108.744 555.145 122.135 600.055 121.965C633.739 121.854 667.58 113.51 700.308 105.44C744.84 94.4595 790.889 83.1047 837.306 92.2681C846.556 94.0941 855.477 97.2671 864.104 100.336C874.345 103.979 884.934 107.746 896.005 109.206C914.814 111.684 935.543 109.401 957.611 102.417C981.813 94.7585 1004.75 82.9134 1026.93 71.4579C1046.29 61.463 1066.3 51.1289 1087.14 43.5691C1115.78 33.1806 1139.55 30.353 1161.94 34.6674C1192.53 40.5623 1220.95 55.1192 1248.43 69.196L1251.74 70.8912C1253.96 72.0277 1256.2 73.1752 1258.44 74.3309C1316.14 103.972 1381.53 137.571 1438.64 91.1135L1439.95 92.7543C1413.99 113.872 1384.02 120.583 1348.33 113.271C1317.23 106.901 1286.86 91.2977 1257.49 76.2082C1255.25 75.0536 1253.01 73.9061 1250.79 72.7706L1247.48 71.0754C1220.13 57.064 1191.85 42.5765 1161.55 36.7381C1139.54 32.4961 1116.12 35.2966 1087.85 45.5522C1067.14 53.0657 1047.18 63.3696 1027.89 73.3343C1005.63 84.8291 982.608 96.7154 958.237 104.428C935.877 111.503 914.847 113.814 895.734 111.295C884.445 109.807 873.751 106.003 863.408 102.324C854.852 99.2803 846.004 96.1326 836.904 94.3357C790.94 85.2609 745.117 96.5604 700.804 107.486C667.959 115.586 633.994 123.961 600.062 124.072C599.817 124.073 599.566 124.073 599.32 124.073Z" fill="#4467F6"/>
</g>
</g>
<g opacity="0.600006">
<mask id="mask1_389_2" style="mask-type:luminance" maskUnits="userSpaceOnUse" x="0" y="23" width="1440" height="85">
<path d="M0.145508 107.462H1439.9V23.2176H0.145508V107.462Z" fill="white"/>
</mask>
<g mask="url(#mask1_389_2)">
<path d="M607.682 107.462C563.575 107.463 519.054 95.5756 475.964 84.0717C472.538 83.1567 469.128 82.2467 465.735 81.3468C458.786 79.5036 451.719 77.6001 444.883 75.7599C401.892 64.1796 357.436 52.2047 312.523 47.2852C260.661 41.6058 209.09 52.2057 159.216 62.4573C107.609 73.0662 54.2456 84.0355 0.145996 77.1723L0.406653 75.0805C54.1626 81.9024 107.356 70.9674 158.798 60.3926C208.829 50.1078 260.564 39.4727 312.748 45.1904C357.82 50.128 402.355 62.1231 445.424 73.7235C452.257 75.5636 459.322 77.4672 466.266 79.3083C469.661 80.2083 473.072 81.1193 476.498 82.0343C520.442 93.7656 565.887 105.906 610.693 105.336C643.098 104.93 675.553 97.1872 706.941 89.6988C749.136 79.6325 792.77 69.2218 836.936 76.4555C846.342 77.9957 855.481 80.8716 864.319 83.652C874.298 86.7927 884.617 90.0401 895.258 91.3235C914.567 93.6529 935.045 91.6567 957.868 85.2223C981.941 78.4356 1005.08 67.883 1027.46 57.6767C1045.89 49.2723 1064.95 40.5821 1084.48 34.0087C1115.8 23.4703 1141.72 20.7413 1166.08 25.4211C1195.34 31.0422 1222.99 43.7197 1249.73 55.9806L1250.03 56.1165C1252.87 57.418 1255.73 58.7367 1258.6 60.0645C1316 86.5511 1381.06 116.572 1438.69 75.2677L1439.9 76.985C1418.94 92.008 1397.07 97.7851 1374.99 97.7851C1335.32 97.7861 1294.93 79.1483 1257.73 61.9811C1254.86 60.6544 1252 59.3357 1249.16 58.0351L1248.87 57.8992C1222.24 45.6897 1194.7 33.0655 1165.69 27.4908C1141.7 22.8814 1116.1 25.5882 1085.15 36.0079C1065.72 42.546 1046.71 51.2141 1028.33 59.5974C1005.87 69.8349 982.657 80.4217 958.432 87.2517C935.34 93.7616 914.596 95.7779 895.009 93.4163C884.178 92.1097 873.765 88.8321 863.695 85.6642C854.927 82.905 845.86 80.0522 836.601 78.5352C792.843 71.37 749.418 81.7303 707.422 91.7493C675.924 99.2639 643.354 107.034 610.72 107.443C609.709 107.456 608.693 107.462 607.682 107.462Z" fill="#4467F6"/>
</g>
</g>
<g opacity="0.399994">
<mask id="mask2_389_2" style="mask-type:luminance" maskUnits="userSpaceOnUse" x="0" y="14" width="1440" height="77">
<path d="M0.0961914 90.2471H1439.85V14.8504H0.0961914V90.2471Z" fill="white"/>
</mask>
<g mask="url(#mask2_389_2)">
<path d="M613.418 90.2461C571.961 90.2471 529.691 80.3257 488.719 70.7103C483.46 69.4772 478.239 68.2511 473.06 67.0572C465.457 65.3037 457.724 63.4907 450.246 61.7372C405.129 51.1554 358.476 40.2143 311.625 35.8153C262.42 31.1958 213.511 40.7297 166.214 49.9495C112.334 60.4527 56.6202 71.3143 0.0957031 61.3607L0.45627 59.284C56.6002 69.1712 112.123 58.3478 165.817 47.8808C213.258 38.6319 262.313 29.0688 311.819 33.7165C358.812 38.1285 405.535 49.0868 450.72 59.6846C458.196 61.4372 465.926 63.2511 473.527 65.0027C478.708 66.1976 483.932 67.4237 489.193 68.6588C532.847 78.9023 577.988 89.4962 621.884 87.9963C652.089 86.9645 682.484 80.0922 711.879 73.4474C753.583 64.0182 796.707 54.2699 840.165 60.954C848.731 62.2707 857.139 64.6292 865.272 66.9103C874.282 69.4369 883.598 72.0501 893.083 73.2219C913.939 75.7999 936.327 73.9285 961.528 67.5032C984.296 61.6989 1006.56 53.0026 1028.09 44.5932C1048.13 36.7666 1068.85 28.6732 1089.98 22.9012C1119.09 14.9508 1143.35 12.9536 1166.32 16.6178C1196.27 21.3983 1224.97 32.9736 1252.72 44.1684L1258.99 46.697C1316.08 69.7057 1380.79 95.7836 1438.74 59.4279L1439.85 61.2167C1420.18 73.5551 1398.56 79.6603 1374.28 79.6613C1366.07 79.6613 1357.56 78.9637 1348.71 77.5726C1317.99 72.7437 1287.61 60.497 1258.22 48.6539L1251.94 46.1242C1224.3 34.9737 1195.72 23.4427 1165.99 18.6995C1143.32 15.0826 1119.34 17.0647 1090.53 24.9356C1069.5 30.6784 1048.83 38.7506 1028.85 46.5581C1007.26 54.9907 984.932 63.7102 962.041 69.5456C936.584 76.0374 913.945 77.9239 892.828 75.3137C883.189 74.1218 873.795 71.4884 864.712 68.9407C856.639 66.6767 848.292 64.3353 839.849 63.0367C796.779 56.4121 753.85 66.118 712.337 75.5029C682.848 82.1699 652.355 89.0633 621.955 90.1021C619.116 90.1988 616.265 90.2461 613.418 90.2461Z" fill="#4467F6"/>
</g>
</g>
<g opacity="0.210007">
<mask id="mask3_389_2" style="mask-type:luminance" maskUnits="userSpaceOnUse" x="0" y="7" width="1440" height="66">
<path d="M0.0473633 72.3457H1439.79V7.25605H0.0473633V72.3457Z" fill="white"/>
</mask>
<g mask="url(#mask3_389_2)">
<path d="M620.759 72.3462C578.407 72.3472 535.166 63.6559 493.261 55.2354C487.249 54.0274 481.033 52.7782 474.984 51.5894C468.158 50.2475 461.33 48.8886 454.501 47.5296C407.988 38.2736 359.892 28.7015 311.868 24.8723C265.103 21.1427 218.489 29.6618 173.41 37.8991C117.084 48.193 58.8415 58.8361 0.046875 45.5465L0.504304 43.49C58.8854 56.687 116.916 46.0821 173.036 35.8255C218.248 27.564 264.999 19.0197 312.034 22.7714C360.177 26.6097 408.334 36.1939 454.905 45.463C461.734 46.8219 468.559 48.1799 475.383 49.5207C481.438 50.7106 487.656 51.9598 493.67 53.1688C538.119 62.1007 584.081 71.3375 628.753 70.1326C658.905 69.3182 689.091 62.9261 718.283 56.7454C756.833 48.5815 796.695 40.1399 837.055 44.403C846.847 45.4368 856.493 47.74 865.823 49.9677C875.072 52.1752 884.635 54.4583 894.277 55.481C913.884 57.5607 934.835 56.3195 958.33 51.685C982.323 46.9528 1005.99 39.3064 1028.87 31.9117C1048.35 25.6182 1068.49 19.1103 1088.79 14.4093C1118.21 7.59637 1142.63 5.71497 1165.65 8.48825C1196 12.1433 1225.46 22.2208 1253.95 31.965L1258.85 33.64C1318.63 54.0929 1380.44 75.2433 1438.8 43.5906L1439.79 45.4459C1413.31 59.8075 1383.55 64.6072 1348.79 60.1196C1318.19 56.1675 1287.68 45.7297 1258.18 35.6352L1253.28 33.9612C1224.89 24.2502 1195.53 14.21 1165.4 10.58C1142.63 7.83796 1118.43 9.70628 1089.26 16.4628C1069.05 21.1437 1048.95 27.6385 1029.51 33.9189C1006.57 41.3318 982.845 48.9973 958.732 53.7526C935.029 58.4274 913.872 59.6787 894.058 57.5758C884.283 56.54 874.653 54.2408 865.341 52.0182C856.076 49.8066 846.495 47.5185 836.836 46.4988C796.807 42.2709 757.105 50.6774 718.713 58.8069C689.431 65.0078 659.151 71.4201 628.81 72.2385C626.132 72.311 623.444 72.3462 620.759 72.3462Z" fill="#4467F6"/>
</g>
</g>
<g opacity="0.0500031">
<mask id="mask4_389_2" style="mask-type:luminance" maskUnits="userSpaceOnUse" x="0" y="0" width="1440" height="54">
<path d="M0 53.7979H1439.73V0.000219562H0V53.7979Z" fill="white"/>
</mask>
<g mask="url(#mask4_389_2)">
<path d="M628.884 53.7988C584.18 53.7998 538.787 46.3638 494.861 39.1684C489.916 38.3591 484.984 37.5507 480.067 36.7555C472.647 35.5556 465.227 34.3385 457.806 33.1205C410.845 25.4167 362.287 17.4502 314.036 14.1887C269.382 11.1688 224.588 18.775 181.268 26.1284C122.133 36.1666 60.9868 46.545 0 29.7292L0.55228 27.6958C61.0947 44.3908 122.011 34.0496 180.921 24.0507C224.36 16.6771 269.278 9.05287 314.175 12.0859C362.525 15.3534 411.134 23.328 458.141 31.0408C465.562 32.2578 472.98 33.4749 480.398 34.6748C485.317 35.47 490.251 36.2783 495.196 37.0887C539.815 44.3969 585.952 51.9466 631.248 51.6849C662.477 51.4987 693.729 45.4558 723.952 39.6123C761.537 32.3454 800.403 24.8309 839.695 28.4578C848.965 29.3134 858.164 31.2019 867.061 33.0279C875.214 34.7019 883.643 36.4324 892.063 37.3504C913.323 39.6687 936.247 38.7386 962.146 34.5077C984.876 30.7932 1007.57 24.9929 1029.52 19.383C1048.86 14.4404 1068.86 9.32869 1088.84 5.65246C1119.74 -0.0340264 1147.03 -1.4111 1172.26 1.43868C1200.76 4.6579 1228.8 12.4865 1255.92 20.0574L1258.69 20.8305C1318.39 37.5074 1380.12 54.7541 1438.86 27.7531L1439.73 29.6708C1380.3 56.9878 1318.19 39.6395 1258.13 22.8609L1255.36 22.0878C1228.32 14.539 1200.36 6.73358 1172.02 3.53248C1147 0.706855 1119.91 2.07689 1089.21 7.72512C1069.3 11.3893 1049.34 16.4909 1030.03 21.4254C1008.04 27.0465 985.3 32.8588 962.48 36.5874C936.394 40.8505 913.286 41.7846 891.839 39.4452C883.321 38.5171 874.843 36.7766 866.644 35.0935C857.803 33.2786 848.66 31.4012 839.504 30.5566C800.506 26.9559 761.788 34.4422 724.346 41.682C694.03 47.5436 662.682 53.6045 631.261 53.7918C630.47 53.7968 629.675 53.7988 628.884 53.7988Z" fill="#4467F6"/>
</g>
</g>
</svg>
